<?xml version="1.0" standalone="no"?>
<!DOCTYPE svg PUBLIC "-//W3C//DTD SVG 20010904//EN"
 "http://www.w3.org/TR/2001/REC-SVG-20010904/DTD/svg10.dtd">
<svg version="1.0" xmlns="http://www.w3.org/2000/svg"
 width="500.000000pt" height="500.000000pt" viewBox="0 0 500.000000 500.000000"
 preserveAspectRatio="xMidYMid meet">
<metadata>
Created by potrace 1.14, written by Peter Selinger 2001-2017
</metadata>
<g transform="translate(0.000000,500.000000) scale(0.100000,-0.100000)"
fill="#000000" stroke="none">
<path d="M2377 4784 c-1 -1 -36 -4 -77 -8 -291 -25 -547 -96 -810 -225 -657
-324 -1128 -956 -1244 -1671 -24 -152 -29 -206 -30 -365 -1 -154 11 -313 30
-409 2 -12 7 -34 9 -51 21 -118 93 -346 155 -491 l19 -44 350 0 350 0 -48 78
c-89 144 -191 384 -216 509 -31 157 -37 216 -38 363 -2 179 4 254 28 370 119
565 516 1025 1064 1235 75 28 171 53 351 91 19 4 397 9 840 11 443 2 836 4
874 6 l69 2 -88 73 c-351 292 -805 481 -1245 518 -76 6 -337 13 -343 8z"/>
<path d="M2399 3466 c-2 -2 -26 -6 -54 -9 -177 -20 -394 -134 -538 -280 -53
-55 -147 -176 -147 -191 0 -4 -11 -23 -24 -44 -26 -42 -81 -194 -92 -257 -3
-22 -8 -49 -10 -60 -10 -49 -4 -237 10 -305 81 -420 417 -736 839 -790 69 -8
240 -6 282 4 11 2 41 9 67 15 225 52 442 202 578 401 40 58 90 153 90 169 0 6
-169 10 -472 9 -495 0 -520 1 -605 45 -46 24 -121 103 -148 157 -53 105 -52
230 3 337 45 87 148 164 252 189 19 4 412 8 873 9 740 0 838 -1 841 -15 46
-162 50 -461 11 -660 -3 -14 -7 -36 -10 -49 -11 -57 -56 -202 -87 -276 -212
-516 -666 -896 -1205 -1011 -65 -14 -156 -28 -203 -32 -47 -3 -449 -6 -893 -6
l-808 -1 38 -33 c261 -226 524 -373 839 -471 55 -17 111 -33 123 -36 12 -2 31
-7 41 -10 136 -43 595 -69 770 -44 415 60 721 174 1031 384 522 354 890 941
975 1555 20 143 22 198 19 380 -4 217 -5 228 -36 386 -31 157 -65 276 -120
416 l-51 128 -1087 0 c-599 0 -1090 -2 -1092 -4z"/>
</g>
</svg>
