<?xml version="1.0" standalone="no"?>
<!DOCTYPE svg PUBLIC "-//W3C//DTD SVG 20010904//EN"
 "http://www.w3.org/TR/2001/REC-SVG-20010904/DTD/svg10.dtd">
<svg version="1.0" xmlns="http://www.w3.org/2000/svg"
 width="512.000000pt" height="512.000000pt" viewBox="0 0 512.000000 512.000000"
 preserveAspectRatio="xMidYMid meet">
<metadata>
Created by potrace 1.14, written by Peter Selinger 2001-2017
</metadata>
<g transform="translate(0.000000,512.000000) scale(0.100000,-0.100000)"
fill="#000000" stroke="none">
<path d="M855 3700 c3 -5 -1 -10 -10 -10 -9 0 -14 -4 -10 -9 3 -5 -4 -12 -15
-16 -11 -4 -17 -11 -14 -17 5 -7 1 -9 -9 -5 -11 4 -14 2 -10 -9 4 -10 -2 -17
-16 -21 -11 -3 -19 -9 -16 -13 2 -4 -7 -12 -21 -19 -17 -7 -24 -17 -20 -27 3
-8 2 -12 -4 -9 -6 3 -10 1 -10 -5 0 -6 -3 -9 -7 -7 -10 6 -34 -19 -26 -27 4
-3 1 -6 -6 -6 -7 0 -9 -5 -6 -10 4 -6 3 -10 -2 -9 -20 4 -33 -2 -33 -15 0 -8
-7 -17 -16 -20 -8 -3 -13 -10 -10 -15 3 -5 0 -8 -7 -7 -6 0 -14 -3 -16 -9 -2
-5 -12 -16 -23 -23 -10 -7 -16 -17 -13 -22 3 -4 -3 -7 -13 -6 -9 0 -16 -5 -14
-12 1 -7 -10 -17 -25 -23 -27 -10 -27 -11 -9 -25 20 -14 20 -14 0 -14 -13 -1
-9 -5 14 -15 18 -8 36 -24 42 -37 5 -13 9 -19 9 -15 1 4 7 2 15 -5 8 -7 12
-16 9 -20 -2 -5 3 -8 11 -8 8 0 21 -9 29 -20 8 -11 17 -17 21 -13 4 4 4 0 1
-8 -4 -11 1 -18 15 -22 12 -3 19 -10 15 -16 -3 -6 1 -11 9 -11 9 0 15 -3 15
-7 -3 -21 2 -26 12 -13 9 12 10 11 6 -8 -3 -13 -1 -20 5 -16 12 8 68 -45 68
-63 0 -8 5 -11 10 -8 6 3 10 -2 10 -11 0 -10 3 -15 6 -11 8 8 34 -18 34 -35 0
-10 3 -9 10 2 8 12 10 11 10 -7 0 -13 8 -24 20 -28 11 -4 18 -11 15 -16 -4 -5
-1 -9 5 -9 15 0 41 -26 33 -34 -4 -3 1 -6 11 -6 9 0 14 -4 11 -10 -3 -5 0 -10
7 -10 8 0 20 -9 28 -19 7 -11 18 -17 24 -14 6 4 5 0 -2 -9 -10 -13 -8 -17 18
-28 16 -7 27 -16 24 -21 -3 -5 1 -9 9 -9 15 0 57 -44 57 -61 0 -5 5 -7 10 -4
5 3 10 -1 10 -10 0 -10 6 -15 13 -12 9 3 13 -4 12 -23 0 -16 -2 -27 -4 -25 -8
8 -41 -16 -36 -26 6 -8 -9 -13 -29 -10 -5 1 -3 -5 4 -14 11 -13 10 -15 -3 -10
-10 4 -17 -1 -22 -14 -3 -11 -12 -20 -18 -18 -7 1 -11 -3 -10 -10 2 -8 -4 -10
-15 -6 -14 6 -15 4 -4 -9 11 -13 10 -16 -5 -14 -10 0 -17 -5 -16 -11 2 -7 -2
-13 -8 -13 -5 0 -7 -6 -3 -12 5 -8 0 -7 -11 2 -10 8 -16 10 -12 3 5 -7 -1 -17
-14 -23 -11 -7 -18 -14 -15 -17 7 -7 -36 -39 -47 -35 -5 1 -6 -2 -2 -8 3 -5 1
-10 -4 -10 -6 0 -11 -8 -11 -17 0 -15 -2 -16 -10 -3 -8 12 -10 11 -10 -6 0
-13 -8 -24 -20 -27 -13 -3 -18 -10 -14 -21 5 -12 2 -15 -12 -9 -11 4 -15 3
-10 -5 3 -6 -3 -13 -14 -17 -11 -3 -20 -11 -20 -16 0 -6 -6 -7 -12 -3 -8 5 -7
0 2 -11 9 -11 10 -16 3 -11 -8 4 -13 2 -13 -5 0 -7 -3 -10 -6 -6 -8 7 -39 -22
-39 -37 -1 -6 -6 -10 -13 -9 -7 2 -12 -3 -12 -11 0 -8 -4 -18 -10 -21 -6 -3
-8 2 -5 12 3 10 -1 6 -8 -10 -7 -15 -16 -24 -20 -20 -5 4 -10 -3 -14 -16 -3
-14 -11 -20 -20 -17 -8 3 -11 1 -8 -4 3 -6 1 -10 -5 -10 -6 0 -8 -4 -5 -10 3
-5 0 -10 -9 -10 -8 0 -19 -12 -24 -27 -6 -16 -11 -22 -11 -15 -1 6 -5 12 -11
12 -5 0 -7 -7 -3 -15 3 -10 0 -15 -8 -13 -8 2 -13 -4 -13 -14 1 -9 -4 -14 -11
-12 -7 3 -15 -4 -18 -15 -3 -11 -2 -20 2 -19 3 1 14 -2 24 -7 15 -6 15 -10 5
-23 -10 -12 -10 -14 0 -8 6 4 12 2 12 -4 0 -6 8 -10 18 -8 12 2 17 -3 16 -19
-1 -13 3 -20 7 -17 10 6 59 -43 59 -58 0 -5 4 -7 9 -4 5 4 20 -7 34 -23 14
-17 29 -27 33 -23 5 4 2 -2 -6 -12 -11 -14 -11 -18 -2 -12 15 9 52 -20 52 -41
0 -7 5 -12 12 -11 6 2 17 -7 23 -19 7 -13 15 -20 20 -15 4 4 6 0 2 -9 -3 -10
0 -16 6 -15 7 0 13 -3 15 -9 2 -5 12 -13 23 -17 10 -4 19 -14 19 -21 0 -8 7
-14 15 -14 8 0 12 4 10 8 -3 4 2 10 11 13 8 3 12 11 8 17 -4 8 -3 9 5 5 6 -4
18 0 27 8 8 9 12 16 7 16 -4 0 4 8 20 18 15 10 24 22 20 25 -3 4 2 7 11 7 13
0 16 5 12 17 -4 10 -4 14 0 10 4 -4 13 2 21 13 8 11 21 20 30 20 10 0 13 6 9
16 -3 8 -2 12 4 9 5 -3 20 4 32 16 13 12 17 18 9 14 -9 -5 -12 -4 -7 3 4 7 14
12 22 12 8 0 12 5 9 11 -4 6 2 13 14 16 11 3 18 9 15 14 -3 5 2 9 11 9 11 0
15 5 12 14 -4 10 -1 13 7 10 7 -3 19 3 27 13 13 17 13 17 -6 3 -19 -14 -19
-14 -6 3 7 9 20 17 28 17 8 0 11 5 8 10 -6 9 7 14 27 11 4 0 5 5 2 13 -6 15
44 59 57 50 5 -3 9 -2 8 3 -3 20 2 34 11 28 6 -3 10 1 10 9 0 8 5 18 12 22 7
5 9 2 4 -7 -4 -8 0 -5 8 5 9 11 16 24 16 29 0 4 5 5 10 2 6 -3 10 1 10 9 0 8
14 24 30 36 17 12 28 26 25 31 -4 5 1 6 9 3 11 -4 16 0 16 11 0 9 5 13 10 10
6 -3 10 1 10 10 0 8 7 18 15 21 8 4 12 11 8 18 -4 6 2 4 12 -4 11 -9 16 -10
11 -2 -4 7 -2 12 4 12 6 0 9 3 7 8 -2 4 4 15 15 25 10 9 18 14 18 10 0 -4 11
9 25 29 14 20 34 39 45 43 12 4 20 15 20 28 0 17 2 19 9 8 7 -11 10 -9 16 8 3
12 10 19 15 16 5 -3 11 4 15 15 4 11 11 18 16 15 5 -4 9 1 9 10 0 10 5 13 12
9 8 -5 9 -2 5 10 -4 10 -3 15 3 11 6 -3 10 -1 10 5 0 6 4 9 9 6 4 -3 13 6 20
20 7 16 17 24 26 20 9 -3 12 0 9 8 -3 7 3 19 13 27 17 13 17 13 3 -6 -14 -19
-14 -19 3 -6 10 8 16 20 13 28 -4 8 -1 11 5 8 6 -4 13 3 16 15 4 16 8 18 14 8
7 -10 9 -9 9 4 0 9 5 20 12 24 7 5 8 2 3 -7 -5 -8 -4 -11 1 -6 10 10 14 58 4
52 -5 -3 -15 6 -24 20 -9 14 -23 25 -31 25 -8 0 -15 7 -15 15 0 14 -13 20 -34
16 -5 -1 -3 6 5 15 9 12 9 15 2 10 -8 -4 -13 -2 -13 4 0 6 -5 8 -10 5 -5 -3
-10 1 -10 10 0 9 -4 13 -10 10 -5 -3 -10 1 -10 9 0 14 -11 20 -32 17 -4 0 -5
6 -2 14 4 10 0 15 -11 15 -9 0 -13 5 -10 10 3 6 -1 10 -9 10 -9 0 -16 7 -16
16 0 11 -5 14 -17 10 -10 -4 -14 -4 -11 0 12 12 -12 46 -29 40 -9 -4 -13 -1
-10 6 5 17 -32 50 -47 41 -6 -4 -5 1 3 11 8 9 10 16 5 15 -5 -1 -16 -1 -24 0
-13 1 -13 2 0 11 12 8 11 10 -7 10 -13 0 -23 4 -23 9 0 6 -11 22 -25 37 -14
15 -25 24 -25 20 0 -4 -7 -1 -15 8 -8 8 -15 19 -15 24 0 6 -7 13 -16 16 -8 3
-12 11 -9 16 4 6 3 10 -2 9 -4 -1 -15 -1 -23 0 -13 1 -13 2 0 11 13 8 12 10
-3 10 -10 0 -20 7 -23 15 -4 8 -10 13 -14 10 -5 -3 -11 4 -15 15 -3 11 -14 20
-23 20 -15 0 -15 2 -2 10 12 8 11 10 -8 10 -12 0 -21 5 -20 13 2 6 -5 11 -14
11 -11 -1 -14 4 -11 14 4 10 2 13 -5 8 -7 -4 -12 -1 -12 8 0 8 -9 18 -20 21
-11 4 -18 10 -15 15 3 4 -2 10 -10 14 -8 3 -15 13 -15 23 0 14 -2 15 -9 5 -6
-10 -10 -9 -14 7 -3 12 -12 21 -20 21 -8 0 -17 9 -20 20 -3 11 -12 20 -21 20
-9 0 -16 6 -16 14 0 8 -9 18 -20 21 -11 3 -20 13 -20 21 0 8 -7 14 -16 14 -8
0 -12 5 -9 11 4 6 -3 13 -15 16 -16 4 -18 8 -8 14 9 6 6 9 -11 9 -13 0 -22 3
-18 6 8 8 -18 34 -33 34 -6 0 -8 5 -5 10 3 6 1 10 -5 10 -6 0 -8 5 -5 10 4 6
1 9 -7 8 -7 -2 -12 2 -11 9 2 6 -6 15 -17 18 -11 4 -20 14 -20 23 0 15 -2 15
-10 2 -8 -13 -10 -12 -10 3 0 10 -4 15 -10 12 -5 -3 -10 -1 -10 4 0 6 -5 11
-11 11 -5 0 -7 -4 -4 -10z"/>
<path d="M2235 3700 c3 -5 0 -10 -8 -10 -7 0 -24 -12 -38 -27 l-24 -28 30 25
30 25 -24 -27 c-14 -16 -31 -28 -38 -28 -8 0 -11 -5 -7 -12 5 -8 2 -9 -10 -5
-10 4 -15 3 -11 -3 4 -6 0 -17 -9 -25 -11 -11 -16 -12 -19 -2 -3 6 -6 1 -6
-12 -1 -16 -5 -21 -15 -18 -11 4 -13 1 -9 -10 5 -12 2 -15 -10 -10 -9 3 -16 3
-16 -1 3 -20 -2 -33 -11 -27 -6 3 -10 -4 -10 -17 0 -16 -3 -19 -9 -10 -6 11
-10 10 -16 -5 -5 -10 -8 -21 -7 -24 1 -4 -6 -6 -16 -5 -9 0 -17 -3 -17 -9 0
-13 -42 -55 -56 -55 -5 0 -7 -5 -3 -12 5 -7 2 -9 -9 -5 -11 4 -15 1 -12 -13 2
-11 1 -19 -3 -19 -22 3 -31 -3 -29 -21 1 -11 5 -20 9 -20 4 0 8 -8 8 -17 0 -9
3 -13 7 -10 3 4 14 -7 24 -23 11 -17 26 -30 34 -30 8 0 15 -7 15 -16 0 -8 3
-13 8 -11 4 3 13 -1 20 -9 7 -8 10 -14 7 -14 -3 0 0 -6 7 -14 7 -8 16 -12 19
-10 3 1 13 -6 22 -16 11 -13 12 -20 4 -24 -7 -2 -2 -5 11 -5 14 -1 22 -7 22
-18 0 -9 3 -14 6 -10 8 8 33 -16 27 -25 -2 -5 3 -8 11 -8 9 0 16 -5 16 -11 0
-5 4 -7 10 -4 6 3 7 -1 4 -9 -3 -9 -1 -16 6 -16 15 0 41 -26 33 -34 -4 -3 0
-6 8 -6 8 0 22 -14 31 -30 9 -17 23 -30 31 -30 22 0 41 -27 25 -33 -7 -3 -3
-6 10 -6 14 -1 22 -7 22 -18 0 -9 3 -14 6 -10 8 8 34 -18 34 -33 0 -6 3 -9 8
-7 9 6 33 -19 25 -27 -4 -3 1 -6 11 -6 9 0 14 -4 11 -10 -3 -5 1 -10 9 -10 9
0 16 -5 16 -11 0 -6 9 -22 20 -36 11 -14 20 -21 20 -16 0 5 -5 14 -12 21 -8 8
-8 12 -1 12 10 0 23 -21 22 -36 0 -4 10 -12 23 -18 14 -7 23 -21 22 -34 0 -18
2 -20 15 -11 9 7 4 0 -11 -14 -16 -14 -28 -31 -28 -37 0 -5 -6 -9 -12 -7 -7 1
-12 -6 -12 -15 1 -10 -4 -14 -12 -11 -8 3 -14 -1 -14 -10 0 -8 -10 -17 -21
-20 -14 -4 -20 -11 -16 -21 4 -9 3 -15 -1 -15 -27 4 -41 -2 -35 -18 4 -11 3
-14 -5 -9 -7 4 -12 1 -12 -8 0 -9 -6 -15 -12 -13 -7 1 -12 -6 -12 -15 1 -10
-2 -15 -7 -13 -4 3 -12 -3 -18 -12 -6 -10 -11 -15 -11 -10 0 10 -40 -31 -40
-43 0 -5 -7 -7 -15 -3 -9 3 -15 2 -13 -3 5 -15 -30 -57 -41 -50 -7 4 -8 1 -5
-8 4 -11 0 -16 -15 -16 -12 0 -21 -5 -21 -11 0 -5 5 -7 12 -3 7 4 8 3 4 -4 -4
-7 -11 -12 -17 -12 -12 0 -49 -37 -49 -50 0 -5 -7 -7 -15 -4 -11 5 -13 2 -9
-10 4 -9 3 -16 -2 -14 -11 4 -54 -38 -54 -53 0 -5 -4 -7 -10 -4 -5 3 -10 -1
-10 -9 0 -10 -6 -13 -15 -10 -11 4 -13 2 -9 -9 3 -8 0 -18 -7 -23 -8 -5 -10
-3 -4 7 4 8 -5 1 -20 -16 -15 -16 -31 -29 -36 -27 -5 1 -8 -1 -8 -5 4 -22 -2
-33 -13 -27 -7 5 -9 2 -5 -8 3 -10 0 -15 -10 -14 -10 0 -19 -10 -24 -27 -6
-24 -5 -26 7 -16 11 9 14 7 14 -10 0 -12 5 -19 10 -16 6 3 10 1 10 -5 0 -6 4
-8 10 -5 6 3 7 -1 4 -10 -5 -11 -2 -14 10 -9 11 4 16 2 14 -7 -2 -8 3 -13 10
-11 6 1 11 -1 11 -5 -3 -21 2 -33 15 -33 8 0 17 -7 20 -16 3 -8 10 -13 15 -10
5 4 15 -7 22 -23 7 -16 17 -27 21 -25 4 3 8 -2 8 -11 0 -9 4 -13 10 -10 6 3
10 -2 10 -11 0 -10 3 -15 6 -12 8 8 54 -37 54 -53 0 -11 2 -11 10 1 8 13 10
12 10 -3 0 -10 5 -15 10 -12 6 4 9 1 8 -7 -2 -7 3 -12 11 -10 12 3 12 0 2 -12
-11 -13 -10 -15 8 -11 20 4 27 -10 21 -40 -1 -5 2 -7 5 -3 4 4 16 3 25 -2 14
-8 22 -4 34 16 10 13 22 22 28 18 6 -4 8 -3 5 3 -8 13 31 55 44 47 5 -3 9 -2
8 3 -3 17 1 33 9 31 10 -4 52 39 52 54 0 6 3 9 6 5 8 -8 44 25 38 35 -3 4 2 8
11 8 10 0 13 5 9 12 -5 8 -2 9 9 5 9 -3 16 -3 16 1 -4 22 5 34 41 57 23 14 38
30 35 35 -4 6 5 14 19 20 14 5 26 17 26 26 0 10 5 14 16 10 8 -3 12 -2 9 3 -3
5 5 20 17 33 15 16 18 17 8 3 -15 -20 -15 -20 8 -1 12 11 22 25 22 33 0 8 4
11 10 8 5 -3 12 6 16 21 4 17 9 22 14 14 5 -9 9 -9 14 -1 4 6 4 11 0 11 -4 0
8 10 27 23 20 14 33 30 31 40 -2 12 2 15 14 10 12 -4 15 -3 10 5 -6 11 5 16
26 13 4 0 4 7 1 16 -5 13 -2 15 11 10 10 -4 15 -3 11 3 -6 9 29 50 43 50 4 0
7 5 7 10 0 13 26 30 36 24 4 -2 11 1 15 7 4 8 3 9 -4 5 -7 -4 -12 -2 -12 3 0
6 3 11 8 11 4 0 18 10 32 23 14 12 21 19 16 15 -6 -5 -15 -8 -20 -8 -6 0 2 9
18 19 17 11 33 18 38 15 4 -3 5 2 2 10 -4 11 0 16 11 16 9 0 14 4 10 9 -3 5 4
12 15 16 11 3 19 9 17 13 -1 4 2 7 6 7 5 0 13 8 18 18 6 9 15 14 21 11 7 -4 8
-2 4 5 -8 12 18 44 28 34 3 -4 7 -1 7 5 1 7 2 18 3 25 1 6 10 11 20 9 12 -2
16 1 10 9 -5 9 -2 10 10 6 9 -4 15 -3 11 2 -8 14 25 42 38 34 7 -4 5 2 -3 12
-9 11 -10 16 -2 11 7 -4 12 -2 12 4 0 6 5 8 10 5 6 -3 10 1 10 10 0 9 4 14 8
11 5 -3 9 1 9 9 0 8 -4 15 -9 15 -4 0 -8 7 -8 16 0 8 -4 13 -8 10 -5 -3 -16 8
-26 25 -9 16 -24 29 -33 29 -9 0 -13 6 -10 14 4 10 1 13 -9 9 -9 -3 -14 0 -12
8 2 8 -4 13 -14 13 -11 -1 -15 5 -13 18 4 16 2 18 -11 7 -12 -10 -13 -9 -8 5
3 9 1 16 -5 16 -6 0 -11 8 -12 18 0 10 -3 12 -6 5 -6 -15 -25 1 -36 30 -3 9
-13 17 -21 17 -8 0 -18 5 -22 12 -5 7 -3 8 7 3 8 -5 6 1 -5 13 -10 12 -23 19
-27 16 -5 -3 -9 2 -9 11 0 11 -5 15 -15 11 -8 -3 -14 -2 -13 2 2 13 -14 42
-22 37 -8 -5 -23 32 -21 48 1 5 -3 6 -8 3 -14 -9 -41 4 -41 20 0 13 -13 19
-34 15 -5 -1 -4 5 4 13 10 13 10 16 -1 17 -8 1 -18 0 -24 -1 -5 -1 -7 1 -3 5
8 9 -16 35 -32 35 -6 0 -8 5 -5 10 3 6 -1 10 -10 10 -9 0 -14 3 -12 8 2 4 -4
15 -15 25 -10 9 -18 14 -19 10 0 -5 -4 2 -9 15 -5 12 -16 22 -25 22 -8 0 -15
6 -15 13 0 7 -9 18 -20 25 -11 7 -20 19 -20 26 0 8 -9 17 -19 21 -11 3 -22 12
-25 20 -3 8 -12 15 -21 15 -8 0 -14 6 -13 13 2 6 -3 11 -9 9 -12 -2 -18 11
-13 33 1 6 -1 7 -5 3 -9 -9 -55 32 -55 49 0 12 -13 17 -32 14 -5 0 -8 5 -8 13
0 8 -9 18 -20 21 -11 4 -18 10 -15 15 7 12 -30 31 -41 22 -5 -4 -2 1 5 10 11
15 10 18 -12 24 -18 4 -24 11 -20 22 4 10 2 13 -5 8 -7 -4 -16 3 -24 18 -9 21
-14 23 -25 14 -8 -6 -13 -7 -12 -2 4 21 -2 34 -15 34 -15 0 -30 27 -27 50 2
13 1 13 -9 0 -9 -11 -13 -12 -17 -2 -2 6 -9 12 -14 12 -6 0 -7 -4 -4 -10z
m-311 -466 c3 -8 2 -12 -4 -9 -6 3 -10 10 -10 16 0 14 7 11 14 -7z m320 -320
c3 -8 2 -12 -4 -9 -6 3 -10 10 -10 16 0 14 7 11 14 -7z"/>
<path d="M3635 3700 c3 -6 -1 -13 -10 -16 -10 -4 -14 -13 -10 -22 3 -9 3 -13
-1 -10 -11 12 -46 -12 -40 -28 3 -7 2 -13 -2 -13 -22 4 -33 -3 -29 -15 4 -11
1 -13 -10 -9 -9 4 -14 2 -11 -3 3 -5 0 -14 -7 -21 -11 -10 -15 -10 -18 0 -3 7
-6 2 -6 -11 -1 -13 -5 -20 -11 -17 -5 3 -10 -1 -10 -9 0 -10 -9 -16 -22 -17
-13 0 -18 -3 -11 -5 15 -7 -24 -54 -44 -54 -8 0 -11 -4 -8 -10 3 -6 -4 -10
-17 -11 -13 0 -17 -3 -10 -6 9 -3 5 -12 -13 -29 -14 -13 -31 -24 -36 -24 -6 0
-8 -4 -5 -9 3 -5 -4 -11 -15 -14 -15 -4 -20 -11 -15 -22 3 -9 2 -13 -3 -10 -5
3 -12 1 -16 -5 -3 -6 1 -13 9 -16 9 -3 13 -10 10 -15 -3 -5 2 -9 11 -9 9 0 13
-4 10 -10 -3 -5 -1 -10 5 -10 6 0 8 -5 4 -12 -4 -6 -3 -8 3 -5 14 9 63 -30 63
-49 0 -8 6 -14 14 -14 19 0 58 -49 49 -63 -3 -5 -1 -7 5 -3 15 9 66 -40 56
-55 -4 -8 -3 -9 4 -5 7 4 12 2 12 -4 0 -6 5 -8 10 -5 6 3 10 -1 10 -9 0 -8 5
-18 12 -22 7 -5 8 -2 3 7 -5 8 4 3 19 -11 14 -13 24 -30 21 -38 -2 -7 -1 -11
4 -8 13 8 52 -34 45 -47 -4 -7 -4 -9 1 -5 4 4 15 -1 24 -10 10 -11 12 -12 6
-2 -9 13 -8 13 8 1 9 -7 17 -19 17 -25 0 -14 45 -56 61 -56 5 0 7 -4 4 -10 -3
-5 -1 -10 5 -10 6 0 8 -4 5 -10 -3 -6 1 -7 9 -4 11 4 16 0 16 -11 0 -9 5 -13
10 -10 6 3 10 1 10 -5 0 -6 10 -21 21 -33 12 -12 19 -15 15 -7 -8 16 7 -1 34
-39 8 -12 21 -19 28 -16 7 3 10 0 7 -6 -9 -13 26 -40 40 -31 16 9 -10 -20 -81
-92 -36 -36 -70 -66 -77 -66 -8 0 -7 -3 2 -9 11 -7 9 -10 -8 -16 -12 -3 -19
-11 -16 -16 6 -8 -9 -13 -28 -10 -5 1 -6 -3 -2 -9 3 -5 1 -10 -5 -10 -6 0 -8
-4 -5 -10 3 -5 -1 -10 -10 -10 -8 0 -18 -7 -21 -15 -4 -8 -14 -15 -23 -15 -13
0 -13 -2 -2 -9 9 -6 10 -11 2 -15 -6 -4 -11 -5 -11 -2 0 3 -9 -2 -20 -11 -11
-10 -20 -24 -20 -32 0 -8 -3 -11 -7 -8 -3 4 -22 -10 -42 -30 -20 -21 -43 -36
-51 -35 -9 2 -11 0 -5 -5 12 -10 18 -34 7 -31 -15 3 -42 -15 -42 -29 0 -8 -5
-11 -12 -7 -8 5 -9 2 -5 -10 4 -10 3 -15 -3 -11 -12 7 -42 -20 -33 -29 4 -3 1
-6 -5 -6 -17 0 -52 -37 -44 -46 4 -4 -1 -4 -11 -1 -11 4 -16 3 -12 -3 3 -6 1
-10 -5 -10 -6 0 -8 -4 -5 -10 3 -5 1 -10 -4 -10 -11 0 -51 -36 -51 -45 0 -3 0
-8 0 -12 0 -5 -5 -1 -11 7 -9 12 -10 11 -6 -8 3 -12 2 -20 -3 -17 -4 3 -10 -1
-13 -8 -6 -15 13 -54 28 -59 6 -2 9 -7 7 -11 -1 -5 2 -6 8 -2 5 3 13 -1 16 -9
3 -9 10 -13 15 -10 5 3 9 2 8 -3 -3 -18 1 -36 8 -30 3 4 19 -6 34 -22 15 -16
30 -26 34 -23 4 4 6 3 5 -3 -4 -19 0 -38 6 -32 8 8 34 -18 34 -33 0 -6 3 -9 8
-7 4 3 16 -5 27 -16 11 -11 13 -16 5 -12 -13 8 -13 6 -1 -8 7 -9 17 -15 21
-12 4 3 16 -6 26 -20 10 -13 23 -21 28 -17 6 3 4 -3 -4 -13 -14 -17 -13 -18 8
-13 12 4 20 2 16 -3 -3 -5 2 -12 10 -15 9 -3 16 -13 16 -21 0 -8 5 -11 10 -8
6 3 10 0 10 -7 1 -8 6 -7 14 5 8 10 18 18 23 18 4 -1 8 3 8 8 0 11 45 51 57
51 5 0 6 5 2 12 -5 7 -2 9 9 5 11 -4 14 -2 10 9 -4 10 2 17 16 21 11 3 18 9
15 14 -2 5 7 11 22 15 18 5 22 9 13 15 -9 5 -6 11 14 20 14 6 24 16 21 20 -3
5 2 9 10 9 9 0 16 6 16 14 0 8 9 18 20 21 11 4 18 11 14 16 -3 6 3 13 15 16
11 3 19 9 16 13 -3 5 4 11 15 15 11 4 18 10 15 15 -3 5 4 12 16 15 17 6 19 9
8 17 -10 7 -8 9 8 5 17 -4 21 -1 18 14 -3 12 1 16 11 12 8 -3 14 -1 14 4 0 6
9 20 20 33 11 13 20 19 20 14 0 -5 7 2 16 14 9 13 20 19 27 15 7 -4 6 1 -2 10
-12 15 -12 17 1 12 8 -3 21 2 29 12 13 17 13 17 -6 3 -18 -14 -19 -14 -7 2 8
10 22 20 33 23 11 4 17 11 14 16 -4 5 -1 9 5 9 6 0 8 5 5 10 -4 6 -3 9 2 8 12
-3 83 64 77 73 -3 5 2 6 10 3 9 -4 18 1 22 10 3 9 11 13 18 9 6 -3 6 -1 -1 8
-7 7 -13 18 -13 24 0 5 5 3 10 -5 6 -9 10 -10 10 -3 0 6 9 15 21 18 11 4 18 9
16 12 -8 8 26 43 41 43 8 0 12 6 8 15 -3 8 -2 14 3 12 11 -3 97 84 93 95 -1 5
2 7 7 3 6 -3 15 4 21 15 6 11 18 20 26 20 8 0 13 4 10 9 -3 5 1 12 10 15 8 3
12 11 8 17 -4 8 -3 9 4 5 6 -3 16 3 22 14 6 11 18 20 26 20 11 0 14 6 10 16
-3 8 -2 12 4 9 6 -3 13 1 16 10 4 9 13 14 21 10 11 -3 13 -1 9 10 -3 8 -2 15
2 15 4 0 13 10 21 21 11 19 11 21 -3 16 -12 -5 -16 0 -16 16 0 17 -2 19 -10 7
-7 -12 -10 -11 -16 5 -10 26 -30 46 -38 38 -3 -4 -6 1 -6 11 0 9 -4 14 -10 11
-5 -3 -10 1 -10 9 0 9 -6 16 -12 16 -7 0 -21 14 -30 30 -9 17 -24 30 -33 30
-10 0 -15 7 -13 18 2 11 -3 16 -14 14 -11 -2 -18 3 -18 13 0 8 -7 15 -16 15
-11 0 -14 5 -10 17 4 10 4 14 0 11 -3 -4 -13 0 -21 8 -8 8 -19 11 -25 8 -7 -4
-8 -2 -4 4 4 7 2 20 -4 29 -11 17 -11 17 -6 1 3 -10 1 -18 -4 -18 -6 0 -10 7
-10 16 0 18 -24 44 -40 44 -7 0 -10 7 -6 15 3 8 2 14 -2 14 -4 -1 -14 -1 -22
0 -13 1 -13 2 0 12 12 9 10 10 -8 6 -19 -5 -21 -3 -11 9 10 12 9 13 -6 8 -13
-5 -16 -4 -11 4 4 7 1 12 -8 12 -9 0 -16 7 -16 16 0 9 -5 12 -12 8 -8 -5 -9
-2 -5 9 3 9 3 16 -1 16 -22 -4 -33 3 -29 15 4 10 -5 19 -24 28 -19 8 -27 18
-24 28 4 8 3 11 -1 7 -4 -3 -18 6 -32 21 -13 15 -21 20 -17 12 3 -8 0 -6 -9 4
-8 10 -13 23 -10 28 3 5 2 8 -3 7 -20 -3 -27 2 -13 12 12 8 10 9 -7 4 -16 -4
-23 -2 -23 8 0 17 -42 57 -59 57 -8 0 -11 6 -7 16 3 8 2 13 -2 10 -5 -3 -15 4
-22 15 -8 10 -20 19 -27 19 -8 0 -18 11 -23 25 -5 14 -16 25 -25 25 -8 0 -15
7 -15 15 0 8 -7 15 -15 15 -8 0 -15 4 -15 9 0 15 -57 71 -65 63 -5 -4 -5 2 -1
12 6 17 5 17 -11 5 -10 -9 -14 -9 -10 -2 9 15 -86 117 -98 106 -4 -5 -5 1 -1
12 4 11 4 16 0 12 -4 -4 -13 1 -21 11 -8 9 -12 11 -8 5 3 -7 1 -13 -4 -13 -6
0 -11 5 -11 10 0 6 -5 10 -11 10 -5 0 -7 -5 -4 -10z m110 -80 c3 -5 1 -10 -4
-10 -6 0 -11 5 -11 10 0 6 2 10 4 10 3 0 8 -4 11 -10z m326 -327 c13 -16 12
-17 -3 -4 -17 13 -22 21 -14 21 2 0 10 -8 17 -17z m-471 -1057 c0 -2 -8 -10
-17 -17 -16 -13 -17 -12 -4 4 13 16 21 21 21 13z"/>
<path d="M720 3026 c0 -2 7 -7 16 -10 8 -3 12 -2 9 4 -6 10 -25 14 -25 6z"/>
<path d="M1275 1900 c-3 -5 -1 -10 4 -10 6 0 11 5 11 10 0 6 -2 10 -4 10 -3 0
-8 -4 -11 -10z"/>
<path d="M2525 1770 c-3 -6 1 -7 9 -4 18 7 21 14 7 14 -6 0 -13 -4 -16 -10z"/>
<path d="M1025 1649 c-4 -6 -5 -12 -2 -15 2 -3 7 2 10 11 7 17 1 20 -8 4z"/>
</g>
</svg>
